GIL02_slow1_ik
nRows=3
nColumns=375

# SIMM Motion File Header:
name GIL02_slow1_ik
datacolumns 375
datarows 3
otherdata 1
range 0.18333000 0.20000000
endheader
time	pelvis_tx	pelvis_ty	pelvis_tz	pelvis_tilt	pelvis_list	pelvis_rotation	hip_flexion_r	hip_adduction_r	hip_rotation_r	knee_angle_r	ankle_angle_r	hip_flexion_l	hip_adduction_l	hip_rotation_l	knee_angle_l	ankle_angle_l	lumbar_extension	lumbar_bending	lumbar_rotation	subtalar_angle_r	mtp_angle_r	subtalar_angle_l	mtp_angle_l	asis_r_px	asis_r_py	asis_r_pz	asis_l_px	asis_l_py	asis_l_pz	midasis_px	midasis_py	midasis_pz	psis_r_px	psis_r_py	psis_r_pz	psis_l_px	psis_l_py	psis_l_pz	hip_r_px	hip_r_py	hip_r_pz	hip_l_px	hip_l_py	hip_l_pz	midhip_px	midhip_py	midhip_pz	epicondLat_r_px	epicondLat_r_py	epicondLat_r_pz	epicondMed_r_px	epicondMed_r_py	epicondMed_r_pz	thighwand_r_px	thighwand_r_py	thighwand_r_pz	upperleg1_r_px	upperleg1_r_py	upperleg1_r_pz	upperleg2_r_px	upperleg2_r_py	upperleg2_r_pz	malleolusLat_r_px	malleolusLat_r_py	malleolusLat_r_pz	malleolusMedv_r_px	malleolusMedv_r_py	malleolusMedv_r_pz	shankwand_r_px	shankwand_r_py	shankwand_r_pz	lowerleg1_r_px	lowerleg1_r_py	lowerleg1_r_pz	knee_r_px	knee_r_py	knee_r_pz	ankle_r_px	ankle_r_py	ankle_r_pz	toe_r_px	toe_r_py	toe_r_pz	epicondLat_l_px	epicondLat_l_py	epicondLat_l_pz	epicondMed_l_px	epicondMed_l_py	epicondMed_l_pz	thighwand_l_px	thighwand_l_py	thighwand_l_pz	upperleg1_l_px	upperleg1_l_py	upperleg1_l_pz	upperleg2_l_px	upperleg2_l_py	upperleg2_l_pz	malleolusLat_l_px	malleolusLat_l_py	malleolusLat_l_pz	malleolusMedv_l_px	malleolusMedv_l_py	malleolusMedv_l_pz	shankwand_l_px	shankwand_l_py	shankwand_l_pz	lowerleg1_l_px	lowerleg1_l_py	lowerleg1_l_pz	knee_l_px	knee_l_py	knee_l_pz	ankle_l_px	ankle_l_py	ankle_l_pz	toe_l_px	toe_l_py	toe_l_pz	subclavicle_r_px	subclavicle_r_py	subclavicle_r_pz	subclavicle_l_px	subclavicle_l_py	subclavicle_l_pz	neck_px	neck_py	neck_pz	sternalnotch_px	sternalnotch_py	sternalnotch_pz	xyphoidprocess_px	xyphoidprocess_py	xyphoidprocess_pz	midhip_tx	midhip_ty	midhip_tz	hip_r_tx	hip_r_ty	hip_r_tz	hip_l_tx	hip_l_ty	hip_l_tz	knee_r_tx	knee_r_ty	knee_r_tz	knee_l_tx	knee_l_ty	knee_l_tz	ankle_r_tx	ankle_r_ty	ankle_r_tz	ankle_l_tx	ankle_l_ty	ankle_l_tz	midasis_tx	midasis_ty	midasis_tz	asis_r_tx	asis_r_ty	asis_r_tz	asis_l_tx	asis_l_ty	asis_l_tz	psis_r_tx	psis_r_ty	psis_r_tz	psis_l_tx	psis_l_ty	psis_l_tz	epicondLat_r_tx	epicondLat_r_ty	epicondLat_r_tz	epicondLat_l_tx	epicondLat_l_ty	epicondLat_l_tz	epicondMed_r_tx	epicondMed_r_ty	epicondMed_r_tz	epicondMed_l_tx	epicondMed_l_ty	epicondMed_l_tz	malleolusLat_r_tx	malleolusLat_r_ty	malleolusLat_r_tz	malleolusLat_l_tx	malleolusLat_l_ty	malleolusLat_l_tz	malleolusMedv_r_tx	malleolusMedv_r_ty	malleolusMedv_r_tz	malleolusMedv_l_tx	malleolusMedv_l_ty	malleolusMedv_l_tz	neck_tx	neck_ty	neck_tz	subclavicle_r_tx	subclavicle_r_ty	subclavicle_r_tz	subclavicle_l_tx	subclavicle_l_ty	subclavicle_l_tz	sternalnotch_tx	sternalnotch_ty	sternalnotch_tz	xyphoidprocess_tx	xyphoidprocess_ty	xyphoidprocess_tz	thighwand_r_tx	thighwand_r_ty	thighwand_r_tz	thighwand_l_tx	thighwand_l_ty	thighwand_l_tz	upperleg1_r_tx	upperleg1_r_ty	upperleg1_r_tz	upperleg1_l_tx	upperleg1_l_ty	upperleg1_l_tz	upperleg2_r_tx	upperleg2_r_ty	upperleg2_r_tz	upperleg2_l_tx	upperleg2_l_ty	upperleg2_l_tz	shankwand_r_tx	shankwand_r_ty	shankwand_r_tz	shankwand_l_tx	shankwand_l_ty	shankwand_l_tz	lowerleg1_r_tx	lowerleg1_r_ty	lowerleg1_r_tz	lowerleg1_l_tx	lowerleg1_l_ty	lowerleg1_l_tz	toe_r_tx	toe_r_ty	toe_r_tz	toe_l_tx	toe_l_ty	toe_l_tz	ground_force_vx	ground_force_vy	ground_force_vz	ground_force_px	ground_force_py	ground_force_pz	ground_force_vx	ground_force_vy	ground_force_vz	ground_force_px	ground_force_py	ground_force_pz	ground_torque_x	ground_torque_y	ground_torque_z	ground_torque_x	ground_torque_y	ground_torque_z	ground_marker_px	ground_marker_py	ground_marker_pz	ground_marker_px	ground_marker_py	ground_marker_pz	ground_marker_px	ground_marker_py	ground_marker_pz	ground_marker_px	ground_marker_py	ground_marker_pz	ground_marker_px	ground_marker_py	ground_marker_pz	ground_marker_px	ground_marker_py	ground_marker_pz	ground_marker_px	ground_marker_py	ground_marker_pz	ground_marker_px	ground_marker_py	ground_marker_pz	ground_marker_px	ground_marker_py	ground_marker_pz	ground_marker_px	ground_marker_py	ground_marker_pz	ground_marker_px	ground_marker_py	ground_marker_pz	ground_marker_px	ground_marker_py	ground_marker_pz	ground_marker_px	ground_marker_py	ground_marker_pz	ground_marker_px	ground_marker_py	ground_marker_pz	ground_marker_px	ground_marker_py	ground_marker_pz	ground_marker_px	ground_marker_py	ground_marker_pz	ground_marker_px	ground_marker_py	ground_marker_pz	ground_marker_px	ground_marker_py	ground_marker_pz	ground_marker_px	ground_marker_py	ground_marker_pz	ground_marker_px	ground_marker_py	ground_marker_pz	ground_marker_px	ground_marker_py	ground_marker_pz	ground_marker_px	ground_marker_py	ground_marker_pz	ground_marker_px	ground_marker_py	ground_marker_pz	ground_marker_px	ground_marker_py	ground_marker_pz	ground_marker_px	ground_marker_py	ground_marker_pz	ground_marker_px	ground_marker_py	ground_marker_pz	ground_marker_px	ground_marker_py	ground_marker_pz	ground_marker_px	ground_marker_py	ground_marker_pz	ground_marker_px	ground_marker_py	ground_marker_pz	ground_marker_px	ground_marker_py	ground_marker_pz	ground_marker_px	ground_marker_py	ground_marker_pz	ground_marker_px	ground_marker_py	ground_marker_pz	ground_marker_px	ground_marker_py	ground_marker_pz	ground_marker_px	ground_marker_py	ground_marker_pz	ground_marker_px	ground_marker_py	ground_marker_pz	ground_marker_px	ground_marker_py	ground_marker_pz	ground_marker_px	ground_marker_py	ground_marker_pz
      0.18333000	      0.71100665	      0.94399180	     -0.20599271	     -1.06964969	     -1.35265197	      0.35851748	     14.33152967	      2.56472631	      6.03986674	    -11.73027513	     -1.25871339	     -3.88528875	     -1.53876506	     -1.70046396	    -36.93280954	    -15.50894205	     -1.65540726	      4.46729303	      1.72377872	      0.00000000	      0.00000000	      0.00000000	      0.00000000	      0.75814474	      0.94608239	     -0.08900795	      0.75891924	      0.94691345	     -0.32716495	      0.72402862	      0.94374674	     -0.20607418	      0.57359125	      1.00245204	     -0.17615776	      0.57852441	      0.99919569	     -0.26192992	      0.64461827	      0.88558713	     -0.12647075	      0.64357782	      0.88193845	     -0.28178849	      0.64409805	      0.88376279	     -0.20412962	      0.77339650	      0.47570526	     -0.06408759	      0.73037953	      0.47397667	     -0.16757621	      0.80604373	      0.59909417	      0.00057561	      0.79385469	      0.66393950	     -0.06914002	      0.80522364	      0.57731064	     -0.08948025	      0.73832047	      0.06269579	     -0.09077978	      0.75110821	      0.07880721	     -0.15963626	      0.76945667	      0.19451143	     -0.00395403	      0.74842552	      0.16358189	     -0.07568926	      0.73791762	      0.47618629	     -0.13597022	      0.74892327	      0.07866813	     -0.13563319	      0.87071446	      0.03836539	     -0.12176061	      0.61512262	      0.44511286	     -0.35325502	      0.61071376	      0.45082998	     -0.24282556	      0.77721412	      0.53283590	     -0.29660799	      0.71553851	      0.59879027	     -0.33447359	      0.68773610	      0.51639733	     -0.33380868	      0.31356051	      0.17054710	     -0.31425049	      0.34460389	      0.16203995	     -0.25541422	      0.42190025	      0.25532736	     -0.40399159	      0.38888043	      0.23741081	     -0.33183862	      0.60874525	      0.45970237	     -0.28307067	      0.34332712	      0.16365832	     -0.27578634	      0.37299953	      0.04803393	     -0.31708485	      0.67303144	      1.34505901	     -0.13447140	      0.68255573	      1.35459504	     -0.24196020	      0.54428830	      1.41694166	     -0.18457888	      0.66016667	      1.35672428	     -0.18625109	      0.75072704	      1.19832556	     -0.20409213	      0.64750400	      0.89383300	     -0.19758700	      0.64106100	      0.87220500	     -0.12621800	      0.63978100	      0.86759800	     -0.27657200	      0.73695900	      0.47431600	     -0.12689200	      0.60402000	      0.44788100	     -0.27768300	      0.74596500	      0.06946000	     -0.15556500	      0.33981000	      0.15300000	     -0.26685800	      0.72824800	      0.95529000	     -0.20476000	      0.72924900	      0.95888900	     -0.08730100	      0.72724800	      0.95169100	     -0.32221800	      0.54097000	      0.99917300	     -0.17099800	      0.54735400	      0.99551200	     -0.25672900	      0.74393500	      0.47589900	     -0.06883100	      0.60210000	      0.44819900	     -0.33565000	      0.70733400	      0.46925000	     -0.18034900	      0.61125700	      0.42347300	     -0.22164800	      0.73474500	      0.06649900	     -0.11728500	      0.32072300	      0.16900000	     -0.29687000	      0.75533400	      0.08516900	     -0.18294000	      0.35186400	      0.16158300	     -0.23954300	      0.54960500	      1.42542300	     -0.18523100	      0.67224700	      1.34143900	     -0.13639100	      0.67644900	      1.34864400	     -0.23834000	      0.65761500	      1.35344900	     -0.18467400	      0.73076100	      1.18683900	     -0.20508000	      0.76477800	      0.57551600	      0.00653200	      0.77182200	      0.50966300	     -0.29860400	      0.76588300	      0.64491400	     -0.05532200	      0.70329100	      0.57311600	     -0.32501200	      0.77560800	      0.55947800	     -0.08279400	      0.67394100	      0.48969500	     -0.32196500	      0.75372600	      0.19410200	     -0.02184100	      0.41578800	      0.26781000	     -0.38678200	      0.74186300	      0.16521400	     -0.09663800	      0.38893000	      0.24252900	     -0.31354400	      0.86969800	      0.03986800	     -0.13857000	      0.38447500	      0.04312600	     -0.27025700	    -52.46791292	    587.32982289	    -23.10529668	      0.76178436	      0.00000000	     -0.14936844	      0.00000000	      0.00000000	      0.00000000	      1.14897693	      0.00000000	     -0.19760445	      0.00000000	     -1.16829517	      0.00000000	      0.00000000	      0.00000000	      0.00000000	      0.64750361	      0.89383298	     -0.19758689	      0.64106101	      0.87220484	     -0.12621841	      0.63978058	      0.86759764	     -0.27657175	      0.73695934	      0.47431609	     -0.12689173	      0.60402000	      0.44788146	     -0.27768281	      0.74596459	      0.06945985	     -0.15556534	      0.33980972	      0.15300003	     -0.26685807	      0.72824836	      0.95528972	     -0.20475955	      0.72924864	      0.95888889	     -0.08730092	      0.72724801	      0.95169055	     -0.32221818	      0.54097021	      0.99917299	     -0.17099784	      0.54735357	      0.99551231	     -0.25672927	      0.74393451	      0.47589898	     -0.06883063	      0.60209960	      0.44819856	     -0.33565012	      0.70733440	      0.46924970	     -0.18034855	      0.61125654	      0.42347312	     -0.22164796	      0.73474479	      0.06649914	     -0.11728545	      0.32072303	      0.16899982	     -0.29686978	      0.75533378	      0.08516928	     -0.18293998	      0.35186359	      0.16158342	     -0.23954317	      0.54960501	      1.42542326	     -0.18523148	      0.67224729	      1.34143937	     -0.13639075	      0.67644918	      1.34864354	     -0.23834038	      0.65761489	      1.35344946	     -0.18467391	      0.73076147	      1.18683910	     -0.20508029	      0.76477826	      0.57551634	      0.00653224	      0.77182162	      0.50966322	     -0.29860350	      0.76588261	      0.64491415	     -0.05532183	      0.70329082	      0.57311577	     -0.32501167	      0.77560824	      0.55947775	     -0.08279406	      0.67394078	      0.48969477	     -0.32196495	      0.75372607	      0.19410154	     -0.02184096	      0.41578820	      0.26780996	     -0.38678238	      0.74186277	      0.16521397	     -0.09663831	      0.38892972	      0.24252898	     -0.31354418	      0.86969805	      0.03986817	     -0.13856985	      0.38447520	      0.04312582	     -0.27025717
      0.19167000	      0.71773753	      0.94465962	     -0.20529032	     -1.03753217	     -1.36612214	      0.42751288	     13.75993982	      2.62054530	      6.02070917	    -11.57545977	     -0.87508808	     -2.78275462	     -1.80891593	     -2.01994666	    -38.95842867	    -18.22218392	     -1.67592583	      4.56563781	      1.88287246	      0.00000000	      0.00000000	      0.00000000	      0.00000000	      0.76501577	      0.94680023	     -0.08836304	      0.76550215	      0.94758092	     -0.32652098	      0.73075952	      0.94442147	     -0.20538748	      0.58032718	      1.00305313	     -0.17530182	      0.58515846	      0.99978112	     -0.26107919	      0.65147634	      0.88623661	     -0.12567580	      0.65025022	      0.88255427	     -0.28099140	      0.65086328	      0.88439544	     -0.20333360	      0.77642451	      0.47510854	     -0.06370565	      0.73330390	      0.47386386	     -0.16715809	      0.81029344	      0.59813500	      0.00101976	      0.79865836	      0.66314450	     -0.06863761	      0.80918964	      0.57642710	     -0.08905133	      0.73849375	      0.06245405	     -0.09080067	      0.75133044	      0.07855174	     -0.15965125	      0.77059840	      0.19396307	     -0.00386273	      0.74929560	      0.16325321	     -0.07561219	      0.74085461	      0.47598568	     -0.13555280	      0.74916552	      0.07840191	     -0.13564643	      0.87094525	      0.03806026	     -0.12178645	      0.62993599	      0.44561305	     -0.35449967	      0.62617819	      0.45069092	     -0.24401491	      0.79065062	      0.53624266	     -0.29850903	      0.72742410	      0.60115176	     -0.33561534	      0.70125987	      0.51822252	     -0.33518328	      0.32413917	      0.17487692	     -0.31433930	      0.35546408	      0.16566552	     -0.25575885	      0.43314459	      0.25830243	     -0.40454273	      0.40036392	      0.24062807	     -0.33222118	      0.62400423	      0.45928931	     -0.28421425	      0.35406778	      0.16738069	     -0.27611520	      0.37636588	      0.04986011	     -0.31669505	      0.67990084	      1.34557574	     -0.13335754	      0.68900422	      1.35529014	     -0.24086685	      0.55094142	      1.41749897	     -0.18284683	      0.66683123	      1.35732135	     -0.18506773	      0.75737107	      1.19898084	     -0.20351918	      0.65428200	      0.89423500	     -0.19652700	      0.64793700	      0.87267600	     -0.12517600	      0.64641000	      0.86802100	     -0.27552500	      0.73997500	      0.47430200	     -0.12619500	      0.61899000	      0.44742200	     -0.27831200	      0.74614700	      0.06941400	     -0.15564800	      0.35061600	      0.15695800	     -0.26776400	      0.73494500	      0.95578800	     -0.20388800	      0.73613800	      0.95942600	     -0.08639700	      0.73375200	      0.95214900	     -0.32137900	      0.54782000	      0.99966200	     -0.16955300	      0.55378400	      0.99582200	     -0.25529400	      0.74703600	      0.47578500	     -0.06814200	      0.61662400	      0.44796000	     -0.33626100	      0.71088500	      0.46971700	     -0.17931100	      0.62732800	      0.42247900	     -0.22173900	      0.73490100	      0.06645900	     -0.11737500	      0.33188600	      0.17316900	     -0.29788700	      0.75526200	      0.08503100	     -0.18309600	      0.36292800	      0.16515400	     -0.24026900	      0.55594300	      1.42587400	     -0.18348900	      0.67969800	      1.34184700	     -0.13540400	      0.68298400	      1.34905700	     -0.23707300	      0.66432600	      1.35403600	     -0.18350000	      0.73799200	      1.18739400	     -0.20447400	      0.76892100	      0.57527500	      0.00734300	      0.78555000	      0.51132300	     -0.30024900	      0.77066200	      0.64499400	     -0.05448500	      0.71585100	      0.57376700	     -0.32598100	      0.77974100	      0.55964500	     -0.08177500	      0.68786000	      0.48963000	     -0.32265200	      0.75476900	      0.19367600	     -0.02160800	      0.42861100	      0.27010500	     -0.38762000	      0.74292700	      0.16482200	     -0.09657000	      0.40214300	      0.24479100	     -0.31441000	      0.86973800	      0.03976600	     -0.13860500	      0.38945400	      0.04447500	     -0.27024200	    -50.95573669	    603.49591011	    -22.65354092	      0.76188519	      0.00000000	     -0.14946503	      0.00000000	      0.00000000	      0.00000000	      1.15192969	      0.00000000	     -0.19868408	      0.00000000	     -1.13603687	      0.00000000	      0.00000000	      0.00000000	      0.00000000	      0.65428233	      0.89423549	     -0.19652671	      0.64793736	      0.87267619	     -0.12517568	      0.64641029	      0.86802053	     -0.27552521	      0.73997545	      0.47430226	     -0.12619527	      0.61898994	      0.44742203	     -0.27831176	      0.74614704	      0.06941394	     -0.15564756	      0.35061598	      0.15695770	     -0.26776427	      0.73494512	      0.95578766	     -0.20388764	      0.73613846	      0.95942587	     -0.08639651	      0.73375177	      0.95214945	     -0.32137877	      0.54782027	      0.99966222	     -0.16955279	      0.55378360	      0.99582177	     -0.25529352	      0.74703622	      0.47578499	     -0.06814186	      0.61662412	      0.44796017	     -0.33626100	      0.71088475	      0.46971729	     -0.17931136	      0.62732810	      0.42247894	     -0.22173919	      0.73490077	      0.06645850	     -0.11737503	      0.33188632	      0.17316908	     -0.29788721	      0.75526172	      0.08503091	     -0.18309623	      0.36292806	      0.16515417	     -0.24026857	      0.55594313	      1.42587411	     -0.18348904	      0.67969817	      1.34184706	     -0.13540436	      0.68298376	      1.34905684	     -0.23707275	      0.66432619	      1.35403597	     -0.18350019	      0.73799193	      1.18739378	     -0.20447429	      0.76892078	      0.57527483	      0.00734320	      0.78555030	      0.51132315	     -0.30024889	      0.77066237	      0.64499390	     -0.05448462	      0.71585077	      0.57376719	     -0.32598066	      0.77974117	      0.55964464	     -0.08177543	      0.68785977	      0.48962998	     -0.32265168	      0.75476891	      0.19367605	     -0.02160775	      0.42861059	      0.27010509	     -0.38762009	      0.74292660	      0.16482219	     -0.09656993	      0.40214333	      0.24479146	     -0.31441003	      0.86973780	      0.03976590	     -0.13860483	      0.38945428	      0.04447467	     -0.27024153
      0.20000000	      0.72421759	      0.94522236	     -0.20451341	     -0.97639885	     -1.38768813	      0.48755589	     13.14793841	      2.69246296	      6.07620986	    -11.37877374	     -0.49510234	     -1.69257302	     -2.08088222	     -2.29880693	    -40.92628720	    -20.27091192	     -1.74954159	      4.65224533	      2.12489026	      0.00000000	      0.00000000	      0.00000000	      0.00000000	      0.77161678	      0.94745413	     -0.08763681	      0.77185135	      0.94814994	     -0.32579539	      0.73723972	      0.94499774	     -0.20462420	      0.58677815	      1.00348345	     -0.17440092	      0.59152244	      1.00018572	     -0.26018216	      0.65810126	      0.88675890	     -0.12480820	      0.65671529	      0.88301961	     -0.28012109	      0.65740827	      0.88488925	     -0.20246465	      0.77920919	      0.47441103	     -0.06332053	      0.73587052	      0.47364152	     -0.16668644	      0.81439138	      0.59706816	      0.00140530	      0.80324270	      0.66222703	     -0.06819203	      0.81289736	      0.57542409	     -0.08867552	      0.73861686	      0.06212850	     -0.09073806	      0.75141459	      0.07821433	     -0.15959866	      0.77171444	      0.19334897	     -0.00373647	      0.75007632	      0.16284341	     -0.07547273	      0.74346055	      0.47568163	     -0.13508981	      0.74929719	      0.07805415	     -0.13558966	      0.87110124	      0.03773481	     -0.12187919	      0.64471882	      0.44611303	     -0.35563590	      0.64153901	      0.45058885	     -0.24510697	      0.80392415	      0.53968568	     -0.30017700	      0.73918141	      0.60348725	     -0.33658306	      0.71468916	      0.52004800	     -0.33639732	      0.33511292	      0.17888475	     -0.31435753	      0.36668300	      0.16903266	     -0.25601342	      0.44470783	      0.26105314	     -0.40499951	      0.41214881	      0.24360469	     -0.33252314	      0.63918782	      0.45890120	     -0.28526753	      0.36517918	      0.17083567	     -0.27635451	      0.38149808	      0.05215923	     -0.31641214	      0.68668197	      1.34594275	     -0.13235870	      0.69523026	      1.35580148	     -0.23990043	      0.55747014	      1.41793408	     -0.18108471	      0.67334574	      1.35775801	     -0.18398488	      0.76378595	      1.19944125	     -0.20311636	      0.66042400	      0.89406000	     -0.19521100	      0.65474300	      0.87306700	     -0.12417300	      0.65299300	      0.86833200	     -0.27451700	      0.74279900	      0.47425400	     -0.12551600	      0.63402200	      0.44713000	     -0.27895700	      0.74626400	      0.06936200	     -0.15572900	      0.36187400	      0.16078000	     -0.26852800	      0.74154400	      0.95622900	     -0.20306000	      0.74291300	      0.95993300	     -0.08548400	      0.74017500	      0.95252600	     -0.32063600	      0.55452500	      1.00004400	     -0.16814500	      0.56007600	      0.99596800	     -0.25389600	      0.75001100	      0.47565100	     -0.06748000	      0.63125000	      0.44786500	     -0.33688600	      0.71305700	      0.47058000	     -0.17849100	      0.64247800	      0.42247100	     -0.22195100	      0.73503100	      0.06641000	     -0.11745300	      0.34352100	      0.17711900	     -0.29881300	      0.75518600	      0.08501600	     -0.18319100	      0.37435800	      0.16849600	     -0.24102400	      0.56216700	      1.42643200	     -0.18170300	      0.68695100	      1.34235700	     -0.13432300	      0.68970800	      1.34975700	     -0.23609700	      0.67081500	      1.35448300	     -0.18242500	      0.74537100	      1.18820500	     -0.20400000	      0.77304500	      0.57508800	      0.00809400	      0.79926300	      0.51325000	     -0.30177900	      0.77566000	      0.64503100	     -0.05392500	      0.72862300	      0.57452200	     -0.32702400	      0.78345200	      0.55958900	     -0.08118800	      0.70152700	      0.49016400	     -0.32340300	      0.75583100	      0.19325200	     -0.02137300	      0.44189400	      0.27216500	     -0.38844000	      0.74341100	      0.16459900	     -0.09636900	      0.41560400	      0.24657000	     -0.31559400	      0.86978500	      0.03967600	     -0.13863800	      0.39582200	      0.04624600	     -0.27053100	    -49.25419114	    619.30679057	    -22.57975510	      0.76217456	      0.00000000	     -0.14945163	      0.00000000	      0.00000000	      0.00000000	      1.15459656	      0.00000000	     -0.19967207	      0.00000000	     -1.09787109	      0.00000000	      0.00000000	      0.00000000	      0.00000000	      0.66042447	      0.89406013	     -0.19521084	      0.65474313	      0.87306726	     -0.12417275	      0.65299267	      0.86833155	     -0.27451733	      0.74279922	      0.47425374	     -0.12551644	      0.63402152	      0.44712955	     -0.27895653	      0.74626368	      0.06936207	     -0.15572925	      0.36187375	      0.16077977	     -0.26852784	      0.74154365	      0.95622933	     -0.20305996	      0.74291259	      0.95993280	     -0.08548424	      0.74017465	      0.95252579	     -0.32063568	      0.55452496	      1.00004375	     -0.16814467	      0.56007618	      0.99596775	     -0.25389647	      0.75001127	      0.47565061	     -0.06747951	      0.63125020	      0.44786489	     -0.33688563	      0.71305692	      0.47058025	     -0.17849113	      0.64247811	      0.42247108	     -0.22195101	      0.73503059	      0.06640977	     -0.11745259	      0.34352094	      0.17711936	     -0.29881302	      0.75518554	      0.08501635	     -0.18319130	      0.37435776	      0.16849606	     -0.24102390	      0.56216747	      1.42643237	     -0.18170306	      0.68695146	      1.34235740	     -0.13432321	      0.68970776	      1.34975719	     -0.23609674	      0.67081541	      1.35448277	     -0.18242513	      0.74537140	      1.18820477	     -0.20399988	      0.77304488	      0.57508838	      0.00809378	      0.79926264	      0.51325017	     -0.30177876	      0.77566016	      0.64503062	     -0.05392520	      0.72862285	      0.57452190	     -0.32702386	      0.78345186	      0.55958909	     -0.08118826	      0.70152658	      0.49016422	     -0.32340306	      0.75583136	      0.19325203	     -0.02137270	      0.44189394	      0.27216455	     -0.38844022	      0.74341089	      0.16459854	     -0.09636909	      0.41560394	      0.24657047	     -0.31559381	      0.86978525	      0.03967631	     -0.13863844	      0.39582226	      0.04624584	     -0.27053118
